<?xml version="1.0" encoding="UTF-8"?>
<svg id="Layer_2" data-name="Layer 2" xmlns="http://www.w3.org/2000/svg" viewBox="0 0 2221.4 1871.39">
  <g id="Pink_Classic_Bows_Coquette_Valentine_Filled" data-name="Pink Classic Bows Coquette Valentine Filled">
    <g id="pink_minimal_bow_ribbon_illustration_Filled" data-name="pink minimal bow ribbon illustration Filled">
      <path d="M2080.4,440.45c-47.67,19.79-77.24,44.09-114.67,74.91-12.43,10.25-26.51,21.51-41.63,33.16,25.03.34,51.75,1.04,81.2,2.28,1.96-.05,3.93-.05,5.86-.05,2.79,0,5.23.3,7.97.35,84.97-47.74,132.3-87.07,140.44-116.85.09-.33,0-.61.09-.93.05-.44-.32-.8-.22-1.24.08-.48.66-4.3-1.8-6.31-2.39-1.96-17.24-10.19-77.24,14.7Z" fill="#fedde4"/>
      <path d="M1520.87,621.08l26.63-9.97c98.34-36.95,164.8-61.66,335.9-62.76,25.99-18.39,46.85-35.42,66.78-51.88,37.48-30.82,69.82-57.45,120.85-78.62,34.87-14.45,60.67-20.04,79.49-18.32-28.12-52.27-55.05-125.83-78.96-192.08-23.58-65.41-45.89-127.22-63.58-151.51-31.99-44.03-52.97-35.07-99.07-15.54l-3.34,1.43c-173,65.84-328.23,197.3-426.34,360.8-82.5,137.45-172.52,188.91-207.14,204.61,16.65,26.91,27.59,67.87,32.06,111.46,32.38-17.47,113.49-59.26,216.72-97.61Z" fill="#fedde4"/>
      <path d="M1426.52,911.06c-2.76-1.6-4.78-2.9-7.69-4.56-.11-.06-.11-.22-.22-.29-42.46-24.72-81.72-34.41-126.3-44.12-7.18,19.16-14.97,30.02-25.52,34.59-2.43,1.07-4.9,1.15-7.35,1.53,12.61,27.93,21.02,78.97-15.3,161.82-56.31,128.28,88.81,360.06,134.62,428.02,66.29,98.41,242.18,306.58,348.33,341.91,101.86,34.06,351.99,10.29,433.51-8.91-48.2-37.98-178.6-147.91-286.42-303.29-71.19-102.55-102.02-158.99-129.21-208.81-24.62-45.09-47.85-87.64-97.11-157.67-96.24-136.9-162.4-203.63-221.33-240.22Z" fill="#fedde4"/>
      <path d="M1008.32,814.93c-.05.37-.16.8-.27,1.17-13.32,47.11-7.48,55.7-6.18,56.92,4.8,4.4,29.44-3.82,47.48-9.97,26.07-8.86,58.38-19.84,91.27-19.84.72,0,1.46,0,2.18.05,40.21.58,67.91,13.42,88.12,22.86,11.67,5.41,21.78,9.76,26.13,8.17,2.57-1.11,7.9-6.1,14.75-27,22.31-67.85,7.32-198.94-27.16-237.72-11.86-13.26-19.63-10.66-45.25,5.04-21.86,13.47-49.13,30.19-84.4,18.41-64.51-21.54-112.47-23.71-121.54-13.37-3.61,4.14.85,14.54,2.92,18.78,31.75,65.15,12.79,171.99,11.96,176.5Z" fill="#fedde4"/>
      <path d="M2045.92,1016.26c-33.71-4.08-72.55-2.55-117.48-.8-80.87,3.04-177.47,6.37-296.76-17.83,36.38,15.56,83.9,33.87,150.9,57.62,193.03,68.43,295.47,17.93,325.45-1.83,1.62-2.08,5.54-7.8,3.62-12.97-1.49-4.03-10.64-17.67-65.73-24.19Z" fill="#fedde4"/>
      <path d="M2004.91,575.19c-262.95-10.82-332.84,15.17-448.81,58.78l-26.74,10.03c-114.62,42.59-201.95,89.64-223.42,101.57,1.49,33.88-.9,66.47-7.01,93.03,47.06,10.46,88.2,22.18,130.69,46.5.44.19.93-.07,1.35.17,29.89,17.14,51.75,30.98,71.41,43.4,9.6,6.08,18.67,11.81,27.91,17.44,167.47,53.5,294.78,48.75,397.21,44.89,46.07-1.7,85.78-3.24,121.27.95,47.37,5.66,74.37,17.94,83.72,37.02,79.06-103.1,68.23-296.29,56.41-365.83-9.55-56.07-74.43-87.96-178.3-87.96h-5.7Z" fill="#fedde4"/>
      <path d="M673.59,1075.49c-65.8,31.07-124.95,37.43-179.04,42.68-49.6,4.77-96.42,9.34-143.08,32.41-71.04,35.17-81.78,60.58-81.86,72.63-.1,15.39,16.13,25.34,19.16,27.06,13.09,5.29,31.1,4.45,61.53-4.3,147.56-42.12,251.81-96.39,318.68-165.78,1.53-1.59,3.07-3.11,4.61-4.7Z" fill="#fedde4"/>
      <path d="M579.24,1809.69c62.2-21.38,127-93,277.38-306.58,145.17-206.16,118.86-301.49,85.57-422.23-24.78-89.82-6.11-158.93,7.84-193.52-56.62,19.03-122.47,72.51-178.28,124.86-.02.02-.01.05-.04.07-.07.06-.14.1-.21.16-33.26,31.2-62.98,61.97-84.91,84.72-23.81,24.7-52.38,47.39-85.2,68.47-23.14,92.34-193.75,300.47-335.18,453.03-101.99,109.92-188.28,158.68-227.56,177.03,148.65,82.02,475.92,36.13,540.59,14.01Z" fill="#fedde4"/>
      <path d="M340.65,1128.68c50.64-25.09,99.66-29.81,151.54-34.85,79.89-7.75,162.52-15.76,263.88-100.32.11-.09.26-.03.37-.12,74.62-69.89,147.57-123.75,210.79-134.63,1.79-.82,3.4-.93,5.37-.82.99-.13,1.99-.34,2.97-.45.54-12.37,3.2-27.5,8.8-47.43.82-4.81,6.55-41.04,5.54-81.26-32.95-5.61-143.96-24.79-238.86-44.26-104.8-21.64-444.75-22.71-625.58,102.39-3.9,1.96-50.03,24.62-18.3,109.29,36.07,96.13,104.17,244.57,134.91,294.06,2.91,4.73,5.41,9.09,7.96,13.49,10.28-25.11,39.58-49.85,90.61-75.09Z" fill="#fedde4"/>
      <path d="M548.4,649.82c-83.64-32.37-134.99-78.38-180.99-120.25-47.43-43.13-88.41-80.37-155.12-89.76-28.81-3.98-48.52-.9-56.98,9.23-3.07,3.64-4.17,7.93-4.7,12.16.32,5.61.07,11.16,1.28,16.86,15.57,73.28,101.83,141.75,236.6,188.2,54.64-9.21,109.23-14.42,159.91-16.44Z" fill="#fedde4"/>
      <path d="M215.69,415.62c74.19,10.45,119.84,51.94,168.17,95.86,56.26,51.21,120.08,109.12,245.41,137.57,53.26,1.18,97.86,5.61,126.71,11.5,89.47,18.35,193.53,36.53,232.24,43.17-2.1-19.53-6.1-38.73-13.83-54.58-3.47-7.13-5.07-13.13-5.9-18.6-19.92-10.22-63.03-50.31-104.34-207.71-49.39-188.12-376.05-351.83-434.22-357.94-51.38-5.36-77.22,1.8-111.22,94.17-6.02,16.34-10.74,30.45-14.96,43.13-19.97,59.74-30,89.76-112.18,165.73-17.4,16.1-29.45,33.78-36.08,52.48,14.97-6.47,34.78-8.42,60.2-4.79Z" fill="#fedde4"/>
      <path d="M296.06,1867.2c128.54,0,252.1-21.01,291.14-34.38,68.75-23.66,133.66-94.43,289.42-315.6,151.81-215.65,122.76-320.91,89.13-442.82-27.37-99.17,3.4-172.44,13.51-192.69,1.58,3.35,3.24,6.6,5.8,9.03,15.49,14.8,40.53,6.31,72.15-4.51,26.15-8.91,55.36-18.62,85.23-18.57,35.01.53,58.94,11.67,78.2,20.58,1.77.82,3.35,1.4,5.07,2.18,4.28,3.89,46,45.86-3.95,159.73-59.66,135.97,75.76,361.07,136.74,451.57,53.63,79.58,238.81,310.77,360.85,351.46,39.44,13.1,100.9,18.2,166.87,18.2,127.35,0,271.41-18.83,305.68-34.59,3.95-1.8,6.66-5.57,7.08-9.92.4-4.3-1.51-8.54-5.04-11.09-1.67-1.22-167.67-121.7-299.66-311.94-70.45-101.54-99.63-154.96-127.85-206.63-24.96-45.68-48.52-88.86-98.57-160.05-45.47-64.66-84.45-113.94-119.66-152.4,43.43,23.74,102.13,49.54,226.21,93.51,76.37,27.06,139.39,36.5,190.21,36.5,114.3,0,166.85-47.8,170.16-50.98,102.84-104.78,91.33-327.7,78.22-404.78-9.89-58.04-64.06-94.74-150.24-105.01,72.83-44.05,111.39-80.43,120.4-113.29.72-2.62.27-5.07.62-7.63.06-.77.18-1.39.18-2.23,1.02-10.85-.23-21.36-5.87-31.04-29.36-50.5-58.14-130.24-83.53-200.64-25.25-70.03-47.06-130.51-66.79-157.67-43.45-59.74-82.84-42.92-128.41-23.61l-2.92,1.27c-177.59,67.53-337.3,202.76-438.17,370.83-84.37,140.58-177.69,187.1-201.97,197.34-24.56-20.78-49.42-6.08-69.73,6.49-20.21,12.47-39.34,24.3-63.85,15.97-27.85-9.23-120.72-37.08-147.67-6.26-.32.37-.56.95-.88,1.35-15.54-12.26-51.05-53.63-86.36-188.2C834.82,214.77,495.61,47.23,432.5,40.6c-71.78-7.64-102.52,17.03-136.71,109.97-6.13,16.66-10.93,30.98-15.23,43.87-19.23,57.51-28.01,83.77-105.6,155.55-34.4,31.84-50.45,70.76-48.64,111.29-.7,10.58.75,18.68,1.63,21.71,0,.05,0,.11.01.16.03.13.1.26.13.39.11.35.37,1.49.4,1.57.03.1.15.12.19.22,16.87,73.52,94.01,141.21,214.08,189.69-84.22,18.04-165.68,46.64-229.15,90.62-.72.32-69.5,31.94-29.31,139.15,37.16,99.1,105.04,246.9,136.98,298.41,4.03,6.42,7.59,12.63,10.96,18.46,11.82,20.49,23.03,36.24,38.78,45.95,4.07,2.91,7.31,4.89,7.72,5.09.45.23.95.17,1.42.34,7.72,2.99,16.47,4.81,27.07,4.81,13.5-.05,29.74-2.65,49.79-8.33,83.79-23.95,153.71-52.02,211.71-84.42-40.36,92.6-183.65,269.41-320.44,416.89-132.2,142.55-238.89,179.58-239.95,179.95-4.35,1.43-7.53,5.2-8.2,9.76-.69,4.51,1.22,9.07,4.96,11.72,67.59,48.44,181.09,63.77,290.96,63.77ZM1647.85,1151.28c49.26,70.03,72.49,112.57,97.11,157.67,27.19,49.81,58.01,106.26,129.21,208.81,107.83,155.39,238.23,265.31,286.42,303.29-81.51,19.2-331.65,42.97-433.51,8.91-106.16-35.33-282.05-243.5-348.33-341.91-45.81-67.96-190.93-299.74-134.62-428.02,36.32-82.85,27.9-133.89,15.3-161.82,2.45-.38,4.92-.45,7.35-1.53,10.55-4.57,18.35-15.43,25.52-34.59,44.59,9.7,83.85,19.4,126.3,44.12.11.07.11.22.22.29,2.9,1.66,4.93,2.96,7.69,4.56,58.93,36.59,125.09,103.31,221.33,240.22ZM2108.02,1053.43c-29.98,19.76-132.42,70.26-325.45,1.83-66.99-23.75-114.52-42.06-150.9-57.62,119.29,24.2,215.89,20.87,296.76,17.83,44.93-1.75,83.77-3.29,117.48.8,55.09,6.53,64.24,20.16,65.73,24.19,1.92,5.17-2,10.9-3.62,12.97ZM2188.92,663.15c11.82,69.54,22.65,262.72-56.41,365.83-9.35-19.08-36.35-31.36-83.72-37.02-35.49-4.19-75.2-2.65-121.27-.95-102.43,3.86-229.74,8.61-397.21-44.89-9.24-5.63-18.32-11.37-27.91-17.44-19.66-12.41-41.51-26.26-71.41-43.4-.42-.25-.91.02-1.35-.17-42.49-24.32-83.63-36.04-130.69-46.5,6.11-26.56,8.49-59.16,7.01-93.03,21.47-11.93,108.79-58.98,223.42-101.57l26.74-10.03c115.97-43.61,185.86-69.6,448.81-58.78h5.7c103.87,0,168.76,31.88,178.3,87.96ZM2159.45,432.06c-.1.44.27.8.22,1.24-.08.32,0,.6-.09.93-8.14,29.78-55.47,69.11-140.44,116.85-2.74-.05-5.18-.35-7.97-.35-1.94,0-3.9,0-5.86.05-29.45-1.24-56.17-1.94-81.2-2.28,15.12-11.64,29.2-22.91,41.63-33.16,37.43-30.82,67-55.12,114.67-74.91,60-24.88,74.85-16.66,77.24-14.7,2.47,2.02,1.88,5.84,1.8,6.31ZM1479.23,402.62c98.12-163.5,253.35-294.96,426.34-360.8l3.34-1.43c46.1-19.52,67.08-28.49,99.07,15.54,17.69,24.3,40,86.1,63.58,151.51,23.92,66.26,50.84,139.82,78.96,192.08-18.82-1.73-44.62,3.86-79.49,18.32-51.04,21.17-83.37,47.8-120.85,78.62-19.94,16.46-40.79,33.49-66.78,51.88-171.1,1.1-237.56,25.81-335.9,62.76l-26.63,9.97c-103.24,38.35-184.34,80.13-216.72,97.61-4.47-43.59-15.4-84.55-32.06-111.46,34.62-15.7,124.63-67.17,207.14-204.61ZM993.44,619.65c9.07-10.34,57.03-8.17,121.54,13.37,35.28,11.78,62.55-4.93,84.4-18.41,25.62-15.7,33.4-18.3,45.25-5.04,34.48,38.78,49.47,169.87,27.16,237.72-6.84,20.9-12.18,25.89-14.75,27-4.35,1.59-14.46-2.76-26.13-8.17-20.21-9.44-47.91-22.28-88.12-22.86-.72-.05-1.46-.05-2.18-.05-32.89,0-65.2,10.98-91.27,19.84-18.04,6.15-42.68,14.38-47.48,9.97-1.3-1.22-7.14-9.81,6.18-56.92.11-.37.21-.8.27-1.17.82-4.51,19.79-111.35-11.96-176.5-2.07-4.24-6.53-14.64-2.92-18.78ZM191.57,367.92c82.18-75.97,92.2-106,112.18-165.73,4.22-12.68,8.94-26.79,14.96-43.13,34.01-92.36,59.84-99.52,111.22-94.17,58.17,6.1,384.83,169.82,434.22,357.94,41.31,157.41,84.42,197.5,104.34,207.71.83,5.47,2.42,11.48,5.9,18.6,7.72,15.85,11.73,35.05,13.83,54.58-38.71-6.64-142.77-24.82-232.24-43.17-28.85-5.9-73.46-10.32-126.71-11.5-125.34-28.45-189.16-86.36-245.41-137.57-48.33-43.93-93.98-85.41-168.17-95.86-25.41-3.63-45.23-1.68-60.2,4.79,6.64-18.7,18.68-36.38,36.08-52.48ZM151.89,478.06c-1.21-5.7-.96-11.25-1.28-16.86.53-4.22,1.64-8.52,4.7-12.16,8.46-10.13,28.17-13.21,56.98-9.23,66.71,9.39,107.69,46.63,155.12,89.76,46,41.86,97.35,87.88,180.99,120.25-50.68,2.03-105.27,7.23-159.91,16.44-134.77-46.46-221.03-114.93-236.6-188.2ZM250.04,1203.76c-2.55-4.4-5.05-8.76-7.96-13.49-30.74-49.5-98.83-197.93-134.91-294.06-31.72-84.67,14.4-107.32,18.3-109.29,180.82-125.09,520.78-124.03,625.58-102.39,94.89,19.47,205.91,38.65,238.86,44.26,1.01,40.21-4.72,76.44-5.54,81.26-5.61,19.93-8.26,35.06-8.8,47.43-.98.11-1.98.32-2.97.45-1.97-.11-3.58,0-5.37.82-63.22,10.87-136.17,64.73-210.79,134.63-.11.09-.26.03-.37.12-101.35,84.56-183.98,92.57-263.88,100.32-51.88,5.04-100.9,9.76-151.54,34.85-51.04,25.23-80.34,49.98-90.61,75.09ZM350.3,1245.97c-30.43,8.75-48.44,9.59-61.53,4.3-3.02-1.72-19.25-11.67-19.16-27.06.08-12.04,10.82-37.45,81.86-72.63,46.66-23.08,93.48-27.64,143.08-32.41,54.09-5.26,113.24-11.61,179.04-42.68-1.53,1.58-3.08,3.11-4.61,4.7-66.87,69.39-171.12,123.66-318.68,165.78ZM266.22,1618.66c141.42-152.55,312.04-360.69,335.18-453.03,32.82-21.08,61.39-43.76,85.2-68.47,21.93-22.75,51.65-53.52,84.91-84.72.07-.06.14-.1.21-.16.02-.02.02-.05.04-.07,55.82-52.34,121.67-105.83,178.28-124.86-13.95,34.59-32.62,103.7-7.84,193.52,33.29,120.74,59.6,216.08-85.57,422.23-150.37,213.58-215.17,285.2-277.38,306.58-64.67,22.12-391.94,68.01-540.59-14.01,39.28-18.36,125.57-67.11,227.56-177.03Z" fill="#ff8d8d"/>
    </g>
  </g>
</svg>